<?xml version="1.0" standalone="no"?>
<!DOCTYPE svg PUBLIC "-//W3C//DTD SVG 20010904//EN"
 "http://www.w3.org/TR/2001/REC-SVG-20010904/DTD/svg10.dtd">
<svg version="1.0" xmlns="http://www.w3.org/2000/svg"
 width="2048.000000pt" height="2048.000000pt" viewBox="0 0 2048.000000 2048.000000"
 preserveAspectRatio="xMidYMid meet">
<metadata>
Created by potrace 1.14, written by Peter Selinger 2001-2017
</metadata>
<g transform="translate(0.000000,2048.000000) scale(0.100000,-0.100000)"
fill="#000000" stroke="none">
<path d="M0 10240 l0 -10240 10240 0 10240 0 0 10240 0 10240 -10240 0 -10240
0 0 -10240z m11378 5709 c-11 -23 -21 -56 -21 -73 -2 -24 -7 -32 -24 -34 -13
-2 -23 1 -23 7 0 7 -30 11 -80 11 -46 0 -80 -4 -80 -10 0 -6 -131 -8 -367 -4
-203 3 -447 1 -543 -5 -224 -12 -498 -39 -528 -51 -13 -6 -38 -10 -55 -10 -18
0 -58 -9 -90 -20 -63 -22 -93 -25 -102 -10 -4 6 -10 8 -14 6 -4 -3 -7 7 -6 22
0 27 1 27 105 39 232 26 297 34 350 44 99 19 555 29 915 22 193 -5 388 -8 435
-8 l85 0 3 35 c3 32 35 80 53 80 4 0 -2 -19 -13 -41z m150 -49 c-7 -11 -17
-20 -22 -20 -4 0 -3 6 3 13 6 8 8 17 5 20 -4 3 -3 14 0 24 7 17 8 17 17 1 7
-12 6 -24 -3 -38z m-2054 25 c-1 -10 -28 -21 -122 -48 l-53 -15 19 31 c15 27
25 33 67 38 65 8 90 6 89 -6z m2013 -61 c-3 -3 -12 -4 -19 -1 -8 3 -5 6 6 6
11 1 17 -2 13 -5z m-297 -111 c166 -14 6 -26 -450 -34 -475 -8 -543 -11 -665
-28 -218 -31 -413 -44 -470 -32 l-40 9 53 1 c29 0 51 5 48 9 -9 16 115 32 529
71 106 10 886 13 995 4z m115 -23 c3 -5 2 -10 -4 -10 -5 0 -13 5 -16 10 -3 6
-2 10 4 10 5 0 13 -4 16 -10z m270 -59 c9 -15 -32 -32 -60 -25 -41 10 -31 34
14 34 22 0 42 -4 46 -9z m-185 -43 c0 -4 -9 -8 -20 -8 -20 0 -28 29 -13 44 7
7 33 -21 33 -36z m-2020 17 c0 -8 -11 -22 -25 -31 -13 -9 -27 -24 -30 -35 -7
-19 -35 -27 -35 -9 0 21 -43 9 -70 -20 -33 -35 -90 -43 -90 -12 0 29 63 62
121 62 44 0 55 4 79 30 30 33 50 39 50 15z m2285 -25 c3 -5 1 -10 -4 -10 -6 0
-11 5 -11 10 0 6 2 10 4 10 3 0 8 -4 11 -10z m-17 -54 c-11 -11 -18 -12 -27
-3 -26 26 1 57 28 32 12 -12 12 -16 -1 -29z m-311 9 c5 -9 31 -17 68 -20 105
-11 143 -25 155 -59 5 -16 8 -31 6 -33 -2 -2 -23 5 -47 15 -24 11 -66 22 -94
26 -94 14 -167 61 -122 79 20 9 26 8 34 -8z m-2216 -145 c-6 -33 -9 -38 -10
-17 -1 16 -5 26 -10 22 -15 -9 -24 35 -10 51 10 12 15 13 26 2 9 -10 11 -25 4
-58z m245 46 c9 -23 31 -26 61 -11 35 19 53 19 53 2 0 -24 -34 -44 -84 -51
-27 -3 -54 -10 -60 -15 -14 -11 -76 -20 -76 -11 0 3 11 21 25 40 14 19 25 40
25 47 0 18 49 17 56 -1z m2226 -61 c3 -14 1 -25 -3 -25 -5 0 -9 4 -9 9 0 5 -3
16 -6 25 -3 9 -2 16 4 16 5 0 12 -11 14 -25z m-2530 -167 c-12 -13 -22 -17
-22 -11 0 15 31 46 38 38 3 -3 -4 -15 -16 -27z m188 17 c0 -8 -9 -19 -20 -25
-23 -12 -25 -7 -10 21 13 22 30 25 30 4z m-213 -80 c-1 -19 6 -42 16 -53 24
-26 38 -206 15 -182 -23 23 -46 106 -54 193 -6 66 -5 77 9 77 11 0 15 -10 14
-35z m2517 13 c2 -7 8 -29 14 -48 6 -19 13 -66 17 -105 l6 -70 -32 34 c-26 28
-30 39 -25 66 5 24 1 43 -14 67 -25 41 -25 55 -2 61 29 8 33 7 36 -5z m-2383
-18 c29 -55 40 -92 45 -145 l5 -60 -20 23 c-21 24 -41 80 -41 117 -1 11 -7 31
-15 45 -8 14 -14 29 -15 33 0 14 32 3 41 -13z m2529 5 c25 -30 25 -235 0 -235
-4 0 -11 39 -15 88 -4 48 -10 101 -15 119 -11 43 5 58 30 28z m-2666 -297 c3
-13 6 -37 6 -54 0 -17 7 -37 15 -44 17 -14 20 -30 5 -30 -5 0 -10 7 -10 15 0
8 -4 15 -8 15 -18 0 -45 67 -38 93 8 33 22 35 30 5z m2462 -25 c3 -16 9 -42
14 -58 4 -17 7 -44 6 -60 -1 -29 -2 -30 -47 -28 -26 0 -136 17 -245 36 -238
42 -454 66 -661 74 -121 5 -153 9 -153 20 0 11 22 13 123 8 229 -11 412 -26
542 -45 72 -10 157 -22 190 -26 33 -3 89 -13 125 -20 36 -7 68 -10 72 -6 3 4
3 28 -2 54 -5 27 -7 55 -4 63 10 24 33 17 40 -12z m152 -37 c11 -44 11 -61 2
-69 -16 -17 -36 13 -45 68 -13 87 21 87 43 1z m-2474 22 c15 -34 18 -68 6 -68
-11 0 -30 49 -30 75 0 33 6 31 24 -7z m1101 1 c-33 -5 -67 -11 -75 -15 -8 -3
-80 -10 -160 -15 -137 -8 -293 -30 -475 -65 -44 -9 -111 -14 -150 -12 l-70 3
115 27 c244 57 493 85 740 86 116 0 126 -2 75 -9z m-985 -140 c0 -10 -65 -20
-84 -13 -19 7 -21 36 -4 63 11 18 13 18 50 -12 21 -18 38 -35 38 -38z m1610
50 c69 -5 208 -23 310 -39 102 -15 212 -32 245 -35 69 -8 213 -49 266 -76 20
-10 67 -25 104 -34 38 -8 84 -27 102 -41 18 -14 49 -28 67 -31 28 -4 36 -1 46
17 6 12 10 23 8 25 -6 6 -132 45 -145 45 -17 0 -174 60 -188 72 -24 21 61 4
151 -30 54 -21 126 -47 159 -56 109 -32 186 -77 235 -140 41 -53 44 -62 45
-119 1 -85 -2 -92 -31 -63 -20 20 -24 31 -20 69 4 42 3 45 -22 50 -15 3 -29 2
-32 -3 -3 -4 -57 -22 -122 -38 -64 -17 -143 -44 -176 -61 -61 -31 -78 -36
-232 -72 -170 -39 -278 -60 -415 -80 -321 -46 -978 -63 -1325 -34 -471 39
-574 55 -840 128 -91 25 -181 48 -200 52 -105 20 -211 49 -258 72 -62 30 -77
23 -87 -38 -5 -30 -11 -39 -23 -37 -21 4 -28 43 -13 72 6 12 12 39 13 61 3 37
8 43 68 83 43 28 75 42 98 42 29 0 32 -2 23 -18 -6 -11 -30 -27 -55 -36 -32
-12 -46 -24 -51 -43 -8 -33 -4 -36 44 -28 31 5 48 16 71 45 24 30 49 46 108
68 120 46 173 63 225 71 42 7 50 6 72 -17 14 -14 25 -28 25 -32 0 -11 54 -20
79 -13 21 5 22 10 16 49 -7 52 -4 54 145 101 185 58 379 88 680 103 182 10
651 4 830 -11z m711 -50 c26 -13 16 -28 -16 -21 -25 4 -31 13 -18 25 8 9 11 9
34 -4z m-2594 -85 c-3 -3 -12 -4 -19 -1 -8 3 -5 6 6 6 11 1 17 -2 13 -5z m-40
-10 c-3 -3 -12 -4 -19 -1 -8 3 -5 6 6 6 11 1 17 -2 13 -5z m-869 -16 c30 -30
-1 -74 -33 -48 -18 15 -20 46 -2 53 19 8 22 8 35 -5z m797 -8 c-16 -11 -34
-20 -38 -20 -4 0 -20 -9 -35 -19 -38 -27 -82 -36 -82 -17 0 21 39 56 70 62 14
3 30 7 35 9 6 2 26 4 45 4 l35 1 -30 -20z m-329 -381 c-3 -17 -6 -44 -6 -60 0
-16 -5 -29 -12 -29 -14 0 -58 40 -58 52 0 20 45 68 63 68 16 0 19 -5 13 -31z
m3714 -6 c-2 -34 -213 -183 -280 -198 -17 -4 -30 -13 -30 -22 0 -9 -6 -13 -15
-9 -12 4 -13 2 -6 -13 6 -10 7 -21 4 -25 -3 -3 2 -15 12 -26 14 -16 15 -20 4
-20 -8 0 -21 16 -28 35 -8 24 -19 35 -32 35 -20 0 -43 -40 -29 -50 11 -8 19
-40 29 -118 10 -79 6 -112 -14 -112 -14 0 -17 8 -30 65 -3 17 -15 48 -25 70
-10 22 -24 66 -31 98 -7 33 -18 57 -25 57 -7 0 -122 -15 -256 -34 -134 -19
-315 -40 -403 -45 -286 -19 -924 -33 -1180 -26 -222 6 -329 13 -630 45 -132
14 -328 48 -368 65 -20 8 -49 15 -64 15 -15 0 -50 11 -78 23 -27 13 -63 27
-80 31 -40 10 -112 44 -120 56 -11 18 51 11 116 -14 70 -26 215 -60 349 -81
47 -7 108 -19 135 -25 240 -55 853 -80 1489 -61 204 6 416 18 471 26 55 8 129
15 165 15 36 0 106 7 155 15 50 8 146 21 215 30 69 8 139 19 155 24 157 47
218 71 307 121 105 60 118 66 118 53z m-291 -408 c0 -27 -2 -35 -8 -25 -10 16
-14 52 -11 85 l1 20 9 -20 c5 -11 9 -38 9 -60z m-2971 14 c15 -62 16 -129 2
-129 -5 0 -12 12 -15 28 -3 15 -13 48 -21 75 -13 38 -14 50 -4 62 20 24 26 18
38 -36z m-112 -54 c7 -48 3 -62 -15 -50 -13 8 -15 95 -2 95 6 0 13 -20 17 -45z
m3081 -37 c-3 -8 -6 -5 -6 6 -1 11 2 17 5 13 3 -3 4 -12 1 -19z m-3137 -118
l-11 -25 6 25 c2 14 5 34 6 45 2 19 2 19 6 0 2 -12 -1 -32 -7 -45z m150 34 c0
-14 7 -51 16 -81 12 -40 13 -58 5 -66 -8 -8 -11 -8 -11 1 0 7 -5 11 -12 10
-21 -5 -38 106 -22 146 10 25 24 19 24 -10z m2859 -6 c0 -13 -3 -17 -6 -10 -2
6 -9 10 -14 6 -10 -6 -12 9 -2 19 13 14 23 7 22 -15z m11 -32 c0 -3 -4 -8 -10
-11 -5 -3 -10 -1 -10 4 0 6 5 11 10 11 6 0 10 -2 10 -4z m-2999 -232 c6 -32
16 -66 23 -74 19 -22 26 -49 16 -55 -5 -3 -7 -19 -3 -35 4 -23 2 -30 -11 -30
-9 0 -16 -6 -16 -14 0 -8 -10 -22 -21 -30 -21 -14 -20 -16 40 -85 33 -40 61
-75 61 -79 0 -9 79 -51 104 -54 27 -4 33 -28 7 -28 -35 0 -153 31 -190 50 -51
26 -74 48 -109 105 -17 28 -41 56 -53 64 l-22 13 24 18 24 18 -29 8 c-15 3
-44 1 -64 -5 -21 -7 -48 -11 -62 -10 -46 4 -60 -1 -60 -21 0 -14 -14 -26 -51
-41 -40 -17 -51 -28 -56 -50 -3 -16 -10 -29 -16 -29 -14 0 -36 -32 -37 -52 0
-10 13 -21 35 -28 19 -6 35 -15 35 -20 0 -23 -13 -37 -31 -33 -10 3 -16 9 -13
14 3 5 -1 6 -9 3 -8 -3 -20 2 -27 11 -18 21 -34 19 -61 -10 -24 -25 -49 -33
-49 -16 0 19 33 86 49 98 9 7 24 10 34 7 15 -5 18 -2 13 13 -4 14 2 28 20 46
15 15 31 27 35 27 5 0 9 6 9 13 0 20 30 43 75 57 22 7 63 25 90 40 86 47 196
90 231 90 l34 0 0 59 c0 33 -4 63 -10 66 -5 3 -10 22 -10 41 0 34 0 35 20 16
12 -11 24 -42 31 -78z m123 31 c9 -35 16 -77 16 -92 0 -17 8 -33 20 -41 63
-39 258 -85 440 -102 58 -6 132 -15 165 -21 36 -6 309 -13 670 -16 558 -4 632
-3 870 16 303 25 412 37 515 57 111 22 125 31 125 79 1 22 4 50 8 61 5 15 2
27 -8 37 -16 16 -21 87 -7 87 19 0 64 -129 60 -170 -4 -45 -4 -45 70 -26 78
21 122 12 141 -30 12 -28 14 -41 5 -31 -9 9 -53 -16 -94 -53 -53 -47 -72 -58
-109 -62 -43 -4 -54 19 -14 28 37 9 53 22 53 46 0 29 -23 31 -97 8 -114 -35
-683 -92 -1113 -111 -274 -12 -451 -9 -895 16 -374 21 -538 43 -755 105 -36
10 -74 20 -85 22 -18 3 -21 13 -26 118 -6 108 -1 140 21 140 4 0 15 -29 24
-65z m2965 9 c6 -14 11 -39 10 -57 -1 -30 -1 -31 -9 -7 l-7 25 -7 -30 c-12
-49 -14 -52 -15 -19 -1 17 -4 52 -7 78 -6 39 -4 45 8 41 9 -4 20 -17 27 -31z
m267 -240 c43 -28 55 -40 52 -57 -4 -27 -41 -34 -76 -15 -21 11 -26 11 -30 0
-2 -7 -15 -17 -28 -22 -16 -7 -23 -16 -21 -31 1 -15 -7 -27 -28 -40 -61 -36
-100 -14 -55 31 11 11 20 29 20 39 0 11 11 32 25 47 30 32 41 64 26 74 -7 4 4
7 24 8 25 1 52 -9 91 -34z m189 -93 c7 -12 -22 -41 -40 -41 -21 0 -28 19 -15
35 14 17 46 20 55 6z m105 -91 c11 -11 23 -20 26 -20 14 0 171 -169 183 -198
21 -51 2 -79 -60 -87 -26 -4 -58 -15 -70 -26 -12 -10 -34 -19 -48 -19 l-26 1
33 30 c23 21 42 29 60 27 49 -6 79 56 47 98 -8 10 -15 29 -15 41 0 23 -42 49
-89 55 -15 2 -30 15 -42 37 -10 18 -27 40 -38 48 -12 8 -21 18 -21 24 0 16 39
10 60 -11z m-546 -6 c15 -6 11 -34 -6 -34 -5 0 -30 -10 -56 -21 -49 -23 -252
-67 -432 -94 -136 -20 -350 -31 -350 -18 0 14 46 33 83 33 18 0 72 9 121 20
50 11 110 20 134 20 64 0 460 80 489 99 1 1 8 -2 17 -5z m-863 -169 c0 -14
-99 -24 -279 -28 -203 -5 -272 7 -97 16 72 4 166 7 210 8 44 1 94 5 110 9 37
10 56 8 56 -5z m-2531 -25 c0 -5 -7 -7 -15 -4 -8 4 -12 10 -9 15 6 11 24 2 24
-11z m205 -90 c3 -5 -1 -10 -9 -10 -8 0 -18 5 -21 10 -3 6 1 10 9 10 8 0 18
-4 21 -10z m-625 -35 c0 -14 -11 -44 -24 -67 -19 -34 -32 -45 -72 -58 -34 -11
-52 -24 -64 -45 -24 -44 -32 -83 -18 -87 6 -2 16 -22 22 -44 9 -31 19 -43 54
-61 23 -11 59 -36 80 -55 78 -71 340 -138 847 -218 72 -11 146 -20 166 -20 20
0 80 -7 135 -15 54 -8 169 -20 254 -26 85 -6 241 -17 345 -24 231 -16 936 -14
1110 3 66 7 212 16 325 21 204 9 477 38 620 66 41 7 129 24 195 36 149 27 434
101 500 130 28 12 75 33 105 46 30 14 65 29 78 34 12 5 22 14 22 20 0 7 7 20
16 30 12 14 20 15 44 6 36 -14 49 -3 27 21 -15 16 -14 22 6 75 12 31 26 55 31
54 25 -8 48 -59 53 -114 4 -52 1 -67 -22 -109 -46 -85 -196 -215 -292 -254
-42 -17 -244 -73 -312 -86 -14 -3 -27 -7 -31 -9 -7 -4 -184 -34 -395 -65 -77
-12 -158 -26 -180 -31 -22 -5 -76 -11 -120 -12 -79 -3 -109 -12 -139 -43 -22
-22 -20 -61 3 -69 11 -3 27 -25 37 -50 l17 -45 -32 -65 c-17 -36 -31 -74 -31
-85 0 -25 -15 -33 -46 -26 -39 10 -34 35 29 145 17 30 17 32 -2 69 -11 22 -18
48 -15 59 3 11 -1 25 -10 32 -9 8 -16 22 -16 32 0 23 -38 24 -220 9 -63 -5
-225 -12 -360 -15 -225 -5 -241 -4 -200 9 72 24 164 34 375 41 207 6 372 18
510 35 44 6 114 15 155 20 319 40 456 61 600 91 265 54 334 79 490 179 79 51
175 149 160 164 -5 5 -10 6 -10 1 0 -5 -7 0 -15 11 -14 19 -14 19 -15 -3 0
-16 -10 -25 -37 -34 -21 -7 -50 -20 -65 -31 -16 -10 -41 -26 -56 -37 -35 -24
-203 -84 -307 -110 -242 -61 -461 -97 -705 -116 -41 -3 -100 -10 -130 -15 -53
-9 -167 -18 -480 -40 -236 -17 -1286 -14 -1545 4 -495 35 -825 80 -1159 157
-233 55 -363 107 -423 172 -25 26 -38 33 -58 30 -14 -3 -25 -6 -25 -8 0 -1 5
-16 11 -33 10 -30 107 -122 128 -122 6 0 27 -9 48 -19 59 -29 102 -47 178 -72
39 -13 75 -26 80 -30 13 -8 125 -43 190 -58 28 -7 67 -17 88 -22 52 -14 304
-48 467 -64 156 -15 140 -12 140 -25 0 -5 -12 -13 -26 -16 -33 -9 -61 -67 -46
-98 6 -12 18 -45 27 -74 14 -42 14 -56 4 -68 -19 -24 -59 -114 -59 -135 0 -12
10 -23 26 -30 l27 -10 -21 -22 c-29 -32 -28 -140 2 -194 22 -38 22 -38 86 -39
83 -1 92 -2 86 -13 -4 -5 0 -12 6 -14 7 -3 2 -6 -12 -6 -15 -1 -30 -5 -35 -10
-24 -22 -88 -51 -115 -51 -35 0 -46 -24 -30 -66 15 -38 21 -124 10 -124 -5 0
-7 -24 -3 -52 4 -43 11 -58 36 -79 30 -26 31 -27 14 -53 -15 -22 -20 -24 -36
-14 -31 19 -51 80 -53 162 -1 55 -6 83 -20 103 -10 17 -18 22 -18 13 0 -26
-20 11 -20 38 0 26 19 30 21 5 1 -10 5 9 10 42 9 64 3 145 -10 145 -5 0 -14
14 -21 30 -11 26 -10 33 5 50 16 17 16 21 1 42 -20 28 -21 62 -1 78 20 17 19
33 -5 55 -11 10 -20 24 -20 30 0 18 39 103 50 110 15 10 12 61 -5 75 -8 7 -15
27 -15 46 0 18 -5 36 -11 39 -6 4 -8 22 -4 45 5 32 3 39 -12 43 -18 6 -134 20
-263 33 -205 20 -411 74 -550 144 -41 21 -100 48 -130 61 -30 12 -74 35 -97
51 -23 15 -47 28 -53 28 -23 0 -110 82 -116 108 -3 15 -12 41 -21 57 -13 27
-13 36 1 85 9 30 26 72 39 93 28 46 105 110 168 138 33 14 51 31 63 55 18 38
36 37 36 -1z m4631 -40 c9 -11 40 -29 69 -40 56 -22 76 -39 82 -70 5 -32 -27
-29 -80 9 -27 20 -53 36 -58 36 -5 0 -26 5 -48 11 -36 10 -38 12 -32 42 10 51
33 55 67 12z m-304 -22 c10 -29 -72 -68 -88 -42 -10 16 -5 22 36 43 32 17 47
16 52 -1z m-241 -108 c-16 -15 -39 -25 -57 -25 -43 0 -35 19 11 26 22 4 40 10
40 15 0 5 7 9 16 9 13 0 10 -6 -10 -25z m-151 -54 c-15 -15 -85 -25 -85 -13 0
12 22 19 65 21 18 1 25 -3 20 -8z m-202 -48 c-7 -2 -21 -2 -30 0 -10 3 -4 5
12 5 17 0 24 -2 18 -5z m2130 -194 c46 -12 88 -71 90 -124 1 -47 -36 -85 -93
-95 -58 -11 -74 -4 -106 41 -50 73 -29 169 40 182 11 2 23 5 26 6 3 0 22 -4
43 -10z m-4333 -388 c135 -7 254 -16 265 -21 26 -12 232 -22 465 -24 116 -1
185 -5 185 -11 0 -7 -155 -10 -445 -10 -404 1 -459 3 -599 23 -85 12 -160 27
-168 33 -7 6 -28 15 -46 20 -36 9 -45 9 343 -10z m14 -137 c9 -22 8 -24 -9
-24 -8 0 -15 9 -15 20 0 24 15 27 24 4z m-189 -51 c0 -6 3 -15 8 -19 4 -4 7
-12 7 -17 0 -5 -9 2 -20 16 -23 29 -25 40 -7 35 6 -3 12 -10 12 -15z m225 -31
c0 -15 -2 -15 -10 -2 -13 20 -13 33 0 25 6 -3 10 -14 10 -23z m1819 -191 c11
-7 8 -13 -14 -27 -24 -16 -26 -22 -20 -58 3 -23 15 -50 25 -62 11 -11 20 -24
20 -28 0 -5 20 -30 44 -57 84 -94 70 -154 -16 -68 -29 30 -68 66 -86 81 -38
31 -44 73 -12 83 11 3 20 10 20 15 0 10 -29 22 -40 15 -12 -7 -23 31 -15 53 3
11 17 24 30 30 14 6 25 16 25 22 0 12 20 13 39 1z m-2021 -304 c-2 -12 -7 -22
-13 -22 -5 0 -15 -4 -21 -8 -8 -5 -13 6 -16 34 -3 29 1 43 11 49 20 11 44 -22
39 -53z m1922 34 c37 -10 37 -36 0 -51 -25 -10 -41 -11 -84 0 -75 18 -270 -1
-374 -36 -48 -17 -52 -21 -47 -42 9 -38 36 -72 56 -72 22 0 31 -13 23 -34 -8
-22 -41 -20 -53 3 -6 10 -26 28 -46 40 -45 26 -50 71 -8 90 18 8 23 15 16 22
-13 13 -962 19 -969 7 -3 -4 -23 -8 -45 -8 -42 0 -52 18 -24 46 11 11 34 13
112 9 426 -24 835 -21 1118 9 248 26 287 28 325 17z m-1695 -45 c0 -10 -10
-22 -22 -27 -20 -7 -23 -5 -23 15 0 12 3 26 7 30 13 13 38 1 38 -18z m129 -72
c16 -6 23 -64 9 -77 -8 -9 -53 32 -53 48 0 6 5 16 12 23 14 14 12 14 32 6z
m1466 -39 c0 -38 -5 -42 -24 -22 -15 15 -29 50 -17 42 5 -3 12 -1 16 5 13 21
25 9 25 -25z m217 3 c-3 -8 -6 -5 -6 6 -1 11 2 17 5 13 3 -3 4 -12 1 -19z
m-1149 -30 c17 -24 39 -23 52 2 14 27 72 26 147 -1 99 -37 111 -58 68 -121
-28 -41 -31 -58 -13 -76 17 -17 28 -15 29 6 0 9 3 12 5 6 3 -7 -4 -27 -14 -45
-15 -27 -30 -37 -73 -51 -99 -31 -129 -21 -112 37 11 34 10 37 -7 32 -16 -4
-22 3 -32 41 -16 56 -44 73 -35 21 4 -19 9 -50 13 -70 9 -52 -10 -62 -122 -67
-123 -6 -129 -3 -109 44 19 47 19 54 -4 54 -22 0 -45 25 -36 40 3 5 13 10 20
10 34 0 48 89 18 122 -23 26 -8 36 57 40 82 6 133 -3 148 -24z m-453 -38 c3
-6 3 -20 -1 -32 -6 -21 -7 -21 -20 -3 -8 10 -14 25 -14 32 0 15 26 18 35 3z
m990 -140 c-6 -18 -8 -19 -31 -4 l-24 16 22 20 c19 16 23 17 31 3 4 -8 5 -24
2 -35z m732 18 c-3 -8 -6 -5 -6 6 -1 11 2 17 5 13 3 -3 4 -12 1 -19z m-4082
-48 c3 -5 1 -10 -4 -10 -6 0 -11 5 -11 10 0 6 2 10 4 10 3 0 8 -4 11 -10z
m3389 -6 c24 -9 19 -27 -17 -62 -30 -29 -35 -31 -52 -18 -19 14 -19 15 -2 33
9 11 17 25 17 31 0 6 8 13 18 15 9 3 18 5 19 6 1 0 8 -2 17 -5z m-1044 -14 c0
-5 -9 -14 -20 -20 -17 -9 -20 -8 -20 10 0 13 7 20 20 20 11 0 20 -4 20 -10z
m1660 -1 c0 -19 -51 -61 -105 -85 -109 -50 -259 -79 -615 -116 -159 -17 -654
-17 -820 0 -69 7 -183 15 -253 19 -119 6 -129 8 -137 27 -10 29 13 41 52 27
45 -16 135 -14 145 3 16 28 51 29 76 2 21 -22 36 -27 118 -35 135 -12 671 -13
759 -1 57 8 81 16 101 36 28 26 55 27 87 1 28 -23 164 -3 257 38 22 10 56 17
76 16 64 -3 192 37 202 63 7 18 57 22 57 5z m-2495 -19 c3 -5 1 -10 -4 -10 -6
0 -11 5 -11 10 0 6 2 10 4 10 3 0 8 -4 11 -10z m-14 -44 c7 -19 16 -33 19 -31
4 3 15 -4 25 -16 10 -11 45 -33 78 -50 46 -23 74 -30 126 -32 61 -2 66 0 69
19 4 30 62 40 70 12 2 -10 8 -18 13 -18 4 0 13 -9 19 -19 11 -22 -4 -76 -19
-67 -4 3 -25 -13 -44 -35 -42 -46 -60 -45 -46 4 17 59 14 64 -38 65 -73 2
-140 20 -232 64 -104 49 -145 49 -188 -4 -53 -64 -72 -78 -101 -78 -17 0 -43
-7 -58 -15 -20 -10 -44 -13 -81 -9 -56 7 -215 -26 -265 -54 -27 -15 -44 -54
-33 -73 4 -5 -9 -16 -29 -24 -33 -14 -34 -17 -26 -46 5 -17 13 -36 18 -42 12
-17 13 -57 1 -79 -7 -14 -7 -24 2 -34 17 -21 17 -100 0 -151 -10 -29 -11 -46
-4 -55 15 -19 23 -61 15 -73 -4 -6 -17 -16 -29 -23 -19 -10 -23 -10 -24 0 -2
19 -2 20 6 56 5 26 4 32 -10 32 -14 0 -16 6 -11 33 4 17 9 57 13 88 5 50 3 59
-17 79 -18 18 -20 26 -11 44 12 22 10 43 -8 89 -17 44 -13 61 19 79 33 19 38
39 15 58 -25 21 -18 49 18 63 17 8 86 26 152 42 216 49 391 114 450 165 20 17
113 69 127 70 4 0 12 -16 19 -34z m2689 -25 c51 -33 66 -41 90 -52 14 -6 32
-15 40 -20 8 -5 26 -14 40 -20 25 -11 52 -24 170 -86 l65 -34 213 -9 c188 -8
216 -11 246 -30 42 -26 47 -37 40 -104 -3 -40 -1 -56 11 -66 17 -14 20 -53 5
-81 -8 -14 -6 -27 6 -51 19 -36 13 -107 -11 -144 -20 -31 -19 -44 6 -70 l21
-22 -21 -57 c-12 -30 -21 -67 -21 -80 0 -30 -14 -32 -43 -5 -19 18 -20 23 -8
42 11 17 11 22 -1 30 -10 7 -10 10 3 18 28 16 33 60 10 84 -20 22 -20 22 -1
86 25 82 25 93 -1 116 -15 13 -18 25 -14 44 15 57 14 63 -16 91 -17 16 -28 33
-25 38 3 5 -19 9 -52 10 -107 2 -200 10 -240 20 -61 17 -92 0 -92 -51 0 -39
-19 -74 -47 -87 -38 -17 -45 -13 -28 19 13 25 14 37 4 70 -11 38 -11 40 21 67
53 45 56 45 112 17 49 -25 64 -27 218 -31 142 -5 167 -3 179 10 20 24 9 50
-24 59 -16 4 -140 10 -275 12 -309 6 -380 20 -380 80 0 12 -4 26 -8 31 -13 18
-71 55 -87 55 -8 0 -24 9 -35 20 -11 11 -26 20 -34 20 -30 0 -75 22 -70 35 11
28 -19 25 -64 -8 -71 -51 -170 -103 -232 -120 -222 -63 -1385 -91 -1595 -39
-44 11 -77 4 -110 -22 -27 -22 -29 -26 -16 -49 7 -14 10 -30 7 -36 -12 -19
-36 -12 -46 14 -5 14 -21 30 -35 35 -35 13 -31 34 9 60 19 11 38 30 41 41 7
20 1 20 128 3 133 -17 477 -34 707 -34 542 -1 965 68 1087 177 27 24 38 28 80
24 26 -2 59 -11 73 -20z m-2448 -25 c59 -11 56 -26 -6 -26 -56 0 -72 9 -62 37
4 10 10 12 19 5 6 -5 29 -12 49 -16z m-652 -247 c0 -34 -40 -61 -83 -57 -28 3
-34 -2 -49 -32 -10 -19 -18 -42 -18 -52 0 -22 -3 -22 -39 -3 -36 18 -47 55
-23 73 9 7 24 18 32 25 25 21 47 26 58 15 8 -8 18 -4 34 17 33 40 31 39 53 51
24 14 35 2 35 -37z m3330 1 c0 -5 -9 -14 -20 -20 -22 -12 -23 -10 -14 14 7 17
34 22 34 6z m-2512 -39 c3 -8 -1 -12 -9 -9 -7 2 -15 10 -17 17 -3 8 1 12 9 9
7 -2 15 -10 17 -17z m2267 -81 c-16 -11 -34 -20 -38 -20 -11 0 15 25 33 33 32
12 34 6 5 -13z m-165 -80 c-19 -13 -30 -13 -30 0 0 6 10 10 23 10 18 0 19 -2
7 -10z m488 -61 c4 -34 -26 -59 -137 -109 -224 -102 -493 -168 -856 -211 -337
-39 -368 -40 -856 -36 -539 4 -826 19 -847 45 -6 9 -8 20 -4 24 9 9 248 -5
387 -22 148 -18 843 -12 1104 10 259 21 325 32 584 97 216 53 408 120 502 174
39 23 77 45 85 49 23 13 35 6 38 -21z m-3518 -73 c0 -8 11 -28 25 -44 26 -31
34 -82 14 -82 -16 0 -38 31 -39 53 0 10 -11 29 -25 42 -19 16 -22 25 -14 31 8
5 10 2 5 -7 -4 -8 -1 -6 6 4 16 21 28 22 28 3z m160 -1 c7 -8 19 -15 26 -15 8
0 14 -4 14 -9 0 -5 17 -17 38 -26 20 -10 51 -28 67 -40 17 -13 55 -28 85 -35
30 -7 85 -21 121 -31 36 -11 76 -19 87 -19 25 0 72 -20 72 -30 0 -4 -6 -13
-14 -19 -24 -20 -402 92 -421 125 -19 33 -39 54 -52 54 -18 0 -53 32 -53 47 0
17 15 16 30 -2z m3681 -20 c0 -5 -13 -12 -28 -13 -15 -2 -37 -15 -50 -28 -12
-13 -27 -24 -33 -24 -7 0 -23 -9 -37 -20 -14 -11 -29 -17 -34 -14 -5 3 -9 1
-9 -4 0 -30 -249 -123 -448 -167 -473 -106 -695 -125 -1452 -125 -402 0 -479
-2 -504 -15 -15 -8 -32 -15 -37 -15 -13 0 -11 54 2 67 7 7 200 9 622 6 l612
-5 185 26 c334 47 401 60 642 127 59 16 114 29 122 29 9 0 16 5 16 10 0 6 7
10 17 10 15 0 79 29 288 132 75 36 126 46 126 23z m1421 6 c13 -5 34 -19 46
-31 20 -18 23 -29 17 -57 -4 -21 -2 -40 5 -48 25 -31 -27 -106 -87 -126 -71
-23 -136 22 -148 105 -11 74 16 118 90 149 48 19 48 19 77 8z m-5085 -158 c37
-20 79 -44 93 -54 28 -19 97 -45 225 -85 123 -39 135 -46 135 -73 0 -23 -2
-24 -60 -18 -138 15 -394 125 -462 199 -71 76 -39 90 69 31z m3691 -8 c2 -13
-7 -26 -26 -37 -24 -15 -34 -15 -61 -5 -33 12 -35 16 -23 32 25 36 105 43 110
10z m-3942 -72 c-8 -8 -36 17 -36 32 0 24 25 22 34 -2 4 -13 5 -27 2 -30z
m3724 -8 c0 -14 -66 -39 -81 -29 -14 8 2 33 24 37 44 9 57 7 57 -8z m-3540
-59 c30 -17 75 -40 100 -50 25 -10 50 -21 55 -26 6 -4 42 -21 80 -36 39 -15
75 -31 80 -35 12 -9 119 -39 163 -46 37 -6 39 -8 45 -76 4 -39 0 -54 -19 -83
-26 -37 -31 -64 -13 -64 8 0 10 -27 8 -82 -3 -63 -1 -82 9 -81 6 2 12 -4 12
-12 0 -8 -6 -15 -14 -15 -10 0 -15 -27 -20 -105 -4 -59 -9 -118 -12 -133 -5
-29 14 -67 23 -44 6 16 23 15 23 -1 0 -8 -7 -27 -15 -44 -22 -44 -27 -363 -5
-363 5 0 7 7 4 15 -4 8 -1 15 5 15 6 0 11 -12 11 -26 0 -20 -4 -25 -16 -20
-15 6 -16 -8 -10 -136 4 -79 12 -153 18 -166 10 -19 8 -25 -10 -38 -31 -22
-31 -85 1 -99 31 -14 35 -58 6 -79 -21 -15 -22 -19 -16 -136 4 -70 13 -135 22
-156 8 -20 15 -49 15 -65 0 -23 -5 -29 -21 -29 -20 0 -21 -3 -15 -61 4 -33 11
-70 15 -82 14 -36 -8 -64 -71 -92 -164 -74 -432 -239 -500 -309 l-40 -41 7 50
c4 28 7 76 6 107 -1 32 3 67 9 78 17 33 15 189 -4 234 -18 42 -22 111 -6 101
5 -3 15 5 21 18 9 20 7 39 -9 93 -24 81 -45 224 -37 247 4 8 13 18 21 21 21 8
34 51 28 86 -6 25 -11 30 -36 30 -20 0 -28 4 -25 13 2 6 10 11 16 9 7 -1 10 2
7 7 -3 5 5 25 18 44 13 19 22 37 20 39 -2 3 -4 32 -5 66 -1 35 -5 65 -9 67 -9
6 -1 45 9 45 4 0 5 16 3 35 -2 19 -8 35 -13 35 -5 0 -9 12 -9 26 0 14 4 23 10
19 6 -4 10 13 10 45 0 32 -4 49 -10 45 -5 -3 -10 3 -10 14 0 23 15 28 23 9 3
-7 3 3 0 22 -4 19 -10 37 -15 38 -11 5 -11 49 0 56 5 3 9 48 10 100 0 75 -3
94 -13 89 -20 -7 -16 277 4 301 10 12 11 23 2 47 -6 18 -8 54 -5 84 4 34 3 55
-5 59 -18 12 -13 60 9 79 23 19 27 76 8 96 -9 8 -13 47 -13 122 0 60 -3 109
-7 109 -4 0 -5 6 -2 14 3 8 1 17 -5 21 -6 3 -11 11 -11 17 0 16 49 0 110 -36z
m3401 10 c0 -11 -97 -43 -153 -49 -51 -6 -38 6 32 28 30 10 59 22 65 27 12 11
56 6 56 -6z m-267 -75 c7 -11 -31 -27 -118 -51 -39 -10 -79 -22 -89 -26 -12
-4 -17 -1 -17 10 0 9 8 16 20 16 11 0 20 5 20 10 0 6 6 10 13 9 6 -1 20 1 29
5 31 14 102 35 120 35 9 1 19 -3 22 -8z m-3324 -62 c0 -15 -7 -29 -15 -33 -12
-4 -15 3 -15 33 0 21 3 41 7 44 10 11 23 -14 23 -44z m4212 -10 c-16 -25 -15
-54 2 -68 23 -19 19 -125 -6 -156 -15 -19 -18 -33 -13 -53 4 -15 8 -50 10 -79
1 -28 5 -63 9 -78 4 -17 1 -31 -9 -41 -11 -12 -14 -26 -9 -52 9 -47 13 -55 30
-48 8 3 14 1 14 -4 0 -21 -108 4 -117 27 -3 7 5 31 16 54 18 34 20 47 12 71
-6 16 -8 56 -4 89 5 49 3 59 -10 59 -16 0 -30 26 -21 41 3 5 12 9 20 9 8 0 24
20 35 44 20 47 19 53 -25 119 -18 27 -18 29 0 67 24 49 55 66 68 38 7 -13 6
-26 -2 -39z m-4322 40 c0 -7 -10 -32 -22 -56 l-22 -43 22 -16 c17 -12 20 -21
15 -45 -5 -29 -4 -31 16 -24 19 6 21 3 20 -27 0 -18 -3 -27 -6 -20 -8 19 -23
14 -23 -8 0 -11 -5 -20 -11 -20 -7 0 -18 -8 -26 -17 -12 -16 -13 -13 -7 22 4
22 11 48 15 57 6 10 5 19 -1 23 -5 3 -10 14 -10 23 0 9 -9 28 -19 41 -19 25
-19 33 6 89 13 31 53 47 53 21z m4040 -30 c-14 -26 -18 -24 -12 6 2 14 8 22
13 19 5 -3 5 -14 -1 -25z m-3023 -1 c-3 -8 -6 -5 -6 6 -1 11 2 17 5 13 3 -3 4
-12 1 -19z m2183 -7 c0 -11 -50 -21 -114 -22 -33 0 -44 -3 -32 -8 18 -7 -32
-16 -194 -36 -25 -3 -90 -12 -145 -20 -55 -8 -136 -15 -181 -15 -44 0 -105 -4
-135 -10 -99 -17 -441 -33 -679 -31 l-235 2 -25 -35 c-33 -46 -43 -45 -35 3 5
29 2 46 -10 65 -16 24 -16 26 0 26 23 0 49 -27 32 -33 -20 -7 118 -19 154 -13
29 4 110 10 304 21 17 1 46 4 65 8 19 3 143 8 275 11 132 2 265 9 295 15 30 5
102 15 160 21 107 11 458 53 493 59 4 0 7 -3 7 -8z m544 -20 c10 -10 34 -22
54 -26 20 -3 47 -13 59 -21 40 -26 49 -117 14 -139 -19 -11 -44 -67 -33 -74
17 -11 22 -60 12 -107 -8 -36 -8 -49 1 -55 9 -5 9 -14 1 -36 -6 -15 -14 -64
-17 -109 -3 -44 -10 -96 -15 -114 -10 -35 0 -60 25 -60 10 0 11 -8 4 -33 -10
-36 -12 -77 -10 -234 1 -85 4 -103 16 -103 19 0 19 -11 0 -36 -17 -23 -20
-104 -4 -104 7 0 9 -10 5 -27 -13 -59 -16 -166 -4 -180 9 -11 6 -23 -10 -52
-28 -50 -28 -69 3 -81 33 -13 35 -62 3 -84 -16 -12 -22 -25 -21 -53 2 -83 22
-220 37 -262 18 -46 14 -56 -19 -63 -16 -3 -20 -11 -18 -42 2 -21 10 -52 18
-69 10 -20 13 -42 9 -60 -4 -20 -2 -32 7 -38 11 -7 12 -12 2 -29 -7 -11 -13
-31 -13 -45 0 -17 -5 -25 -17 -25 -23 1 -124 24 -193 45 -72 22 -185 50 -296
74 -145 32 -238 61 -249 79 -15 25 -16 64 -3 95 9 23 15 27 35 23 28 -8 28 -6
6 42 -20 45 -23 58 -28 142 -2 36 -7 90 -10 122 -6 53 -5 57 17 63 50 16 52
59 3 79 -40 17 -44 34 -15 59 19 16 20 28 18 127 -1 60 1 113 5 116 16 16 6
62 -15 78 -22 15 -22 16 -6 29 15 11 18 28 16 88 -1 41 -5 82 -10 91 -4 9 -4
19 1 22 4 3 5 27 1 53 -7 51 -5 105 6 166 5 30 3 40 -12 51 -16 12 -17 17 -5
42 20 42 32 364 16 431 -6 27 -4 34 11 40 26 9 40 25 48 51 4 12 12 22 17 22
19 0 8 21 -17 30 -39 15 -14 40 40 40 22 0 70 8 106 16 266 66 393 79 424 45z
m318 -148 c-4 -20 -14 -39 -21 -41 -11 -4 -13 6 -8 47 3 28 9 57 13 63 13 20
24 -30 16 -69z m-3922 13 c0 -39 -6 -31 -14 19 -5 29 -4 36 3 25 6 -8 11 -28
11 -44z m909 -20 c-5 -17 -9 -32 -9 -33 0 -2 -8 -3 -17 -3 -17 1 -17 2 -1 13
9 7 16 20 16 28 -1 7 0 23 1 34 1 16 3 17 10 6 5 -8 5 -27 0 -45z m1871 -15
c0 -4 -11 -18 -24 -30 -23 -21 -24 -29 -21 -114 2 -51 6 -99 9 -108 4 -8 0
-29 -9 -45 -18 -34 -19 -66 -4 -81 8 -8 8 -17 0 -31 -6 -11 -11 -34 -11 -50 0
-16 -6 -35 -14 -41 -18 -15 -9 -49 15 -62 19 -10 26 -44 11 -53 -10 -6 -9
-137 1 -154 4 -6 2 -20 -4 -30 -7 -12 -9 -27 -4 -38 16 -36 14 -146 -2 -171
-12 -18 -13 -27 -4 -36 6 -6 11 -21 11 -34 0 -16 4 -21 15 -17 8 4 15 1 15 -5
0 -6 -6 -11 -14 -11 -15 0 -28 -38 -18 -54 3 -6 7 -46 9 -90 2 -74 1 -80 -23
-99 -34 -27 -29 -60 11 -67 26 -4 30 -10 33 -42 3 -32 -1 -39 -27 -53 -26 -13
-31 -22 -31 -51 0 -19 7 -49 16 -66 11 -22 14 -43 9 -80 -5 -38 -3 -53 9 -66
8 -10 16 -37 18 -62 3 -39 1 -44 -22 -50 -23 -6 -25 -10 -21 -56 1 -27 6 -53
9 -59 3 -5 5 -26 3 -47 -1 -22 2 -38 8 -38 17 0 13 -40 -4 -46 -19 -8 -19 -35
0 -60 18 -23 19 -51 3 -56 -9 -3 -9 -15 1 -49 7 -24 14 -64 15 -87 2 -24 6
-46 10 -49 13 -14 5 -53 -14 -63 -12 -6 -20 -21 -20 -36 0 -14 -9 -37 -20 -51
-28 -36 -25 -52 10 -59 34 -7 36 -15 14 -49 -18 -28 -12 -75 10 -75 17 0 26
-22 26 -59 0 -27 -18 -42 -65 -54 -11 -3 -51 -17 -90 -30 -148 -52 -730 -146
-760 -123 -16 13 -23 155 -10 223 6 35 5 44 -9 49 -20 8 -21 47 -1 64 20 16
19 64 -1 81 -18 15 -12 89 11 125 12 18 11 32 -6 95 -18 69 -19 84 -8 227 9
115 10 155 1 161 -6 4 -18 23 -27 43 -14 36 -14 38 7 58 12 11 25 20 30 20 12
0 10 52 -3 89 -6 17 -15 31 -21 31 -6 0 -7 19 -3 49 5 34 2 59 -9 86 -24 57
-20 82 18 118 28 27 33 37 28 65 -3 27 -10 34 -33 39 -39 8 -45 20 -21 46 34
38 43 63 32 92 -16 42 -13 142 5 149 9 3 15 18 15 35 0 22 -5 30 -25 35 -14 4
-25 12 -25 19 0 8 11 24 25 37 30 28 32 51 5 67 -17 11 -18 17 -8 45 9 24 8
33 0 36 -16 5 -15 37 1 63 8 15 9 23 1 26 -10 3 -10 143 1 189 6 26 -16 47
-39 38 -9 -3 -16 -1 -16 5 0 6 5 11 10 11 6 0 10 7 10 15 0 8 4 15 8 15 5 0
14 66 21 148 11 137 8 201 -13 252 -13 32 9 38 169 49 251 17 471 32 580 40
136 10 235 11 235 2z m-2980 -73 c0 -10 -4 -18 -10 -18 -5 0 -10 2 -10 4 0 2
-2 11 -5 19 -4 8 0 14 10 14 8 0 15 -9 15 -19z m1885 -131 c1 -48 -1 -90 -5
-92 -5 -3 -8 -42 -8 -88 1 -58 -4 -92 -16 -114 -21 -41 -21 -42 9 -53 23 -9
24 -12 19 -77 -3 -37 -7 -83 -9 -100 -2 -22 1 -36 12 -41 13 -8 13 -12 2 -30
-12 -18 -12 -26 0 -43 10 -18 11 -26 0 -46 -10 -18 -10 -26 -1 -35 16 -16 15
-49 -3 -72 -17 -22 -20 -56 -6 -56 5 0 14 -13 19 -29 8 -22 7 -32 -4 -42 -11
-12 -12 -31 -3 -107 l11 -93 -26 -28 c-36 -38 -34 -59 7 -63 31 -3 32 -5 32
-48 0 -39 -4 -46 -27 -58 -34 -16 -35 -40 -8 -101 23 -50 25 -70 8 -105 -9
-21 -8 -29 5 -44 9 -10 23 -37 31 -59 16 -45 10 -57 -29 -65 -30 -5 -30 -33 1
-93 22 -45 25 -57 14 -70 -11 -13 -10 -19 5 -35 17 -19 17 -21 2 -38 -12 -13
-17 -35 -16 -68 0 -27 0 -68 0 -91 -1 -22 6 -67 15 -100 29 -104 29 -102 2
-112 -19 -7 -27 -19 -31 -48 -12 -69 -9 -93 11 -93 31 0 32 -11 7 -55 l-25
-42 21 -19 c18 -16 20 -26 14 -69 -4 -27 -8 -71 -9 -97 -1 -46 -3 -49 -44 -69
-42 -21 -47 -21 -162 -9 -112 13 -119 15 -115 34 11 57 15 195 5 201 -13 8
-13 62 0 70 16 10 12 61 -6 76 -20 17 -12 93 13 121 14 15 14 24 5 56 -33 103
-34 127 -15 349 5 59 3 75 -11 88 -23 24 -21 87 4 103 23 14 26 55 8 99 -6 15
-15 55 -19 88 -4 33 -12 80 -18 104 -13 48 -7 81 14 81 20 0 45 40 45 73 0 23
-7 31 -35 43 -32 13 -49 44 -25 44 20 0 42 62 35 99 -9 45 -7 119 4 140 11 20
18 61 10 58 -3 -1 -13 4 -22 11 -15 13 -15 17 4 54 17 33 19 48 11 77 -5 21
-8 117 -8 214 1 131 -2 177 -11 177 -17 0 -26 18 -16 33 11 18 12 26 18 212 5
113 10 172 18 177 7 5 75 7 151 5 l140 -2 1 -88z m-1845 -92 c0 -8 -4 -15 -10
-15 -9 0 -27 -114 -21 -135 11 -39 8 -67 -7 -72 -9 -4 -20 -11 -24 -17 -4 -6
-10 -7 -15 -3 -4 5 -2 11 4 15 7 5 13 49 16 116 3 78 8 111 18 117 21 13 39
11 39 -6z m4400 -158 c0 -29 -34 -67 -60 -67 -30 0 -25 34 11 64 38 32 49 33
49 3z m-4323 -39 c-2 -13 -4 -5 -4 17 -1 22 1 32 4 23 2 -10 2 -28 0 -40z
m1319 5 c-10 -10 -19 5 -10 18 6 11 8 11 12 0 2 -7 1 -15 -2 -18z m2884 17 c0
-5 -4 -10 -10 -10 -5 0 -10 5 -10 10 0 6 5 10 10 10 6 0 10 -4 10 -10z m-4276
-142 c-3 -5 -12 -1 -20 9 -20 26 -17 35 5 16 11 -9 18 -21 15 -25z m6 -49 c0
-6 -4 -7 -10 -4 -5 3 -10 11 -10 16 0 6 5 7 10 4 6 -3 10 -11 10 -16z m-40
-76 c0 -7 -4 -13 -10 -13 -5 0 -10 12 -10 28 0 21 2 24 10 12 5 -8 10 -21 10
-27z m0 -83 c0 -5 -4 -10 -10 -10 -5 0 -10 5 -10 10 0 6 5 10 10 10 6 0 10 -4
10 -10z m36 -38 c-12 -11 -18 7 -10 30 l8 23 4 -23 c2 -13 1 -26 -2 -30z
m4277 15 c-3 -5 -9 -3 -14 4 -4 7 -5 17 -2 22 3 5 9 3 14 -4 4 -7 5 -17 2 -22z
m127 8 c0 -8 -7 -15 -15 -15 -26 0 -18 20 13 29 1 1 2 -6 2 -14z m-4406 -103
c-6 -23 -8 -24 -11 -7 -3 11 -12 25 -20 32 -13 10 -13 14 -2 26 20 22 44 -14
33 -51z m4286 38 c0 -5 -2 -10 -4 -10 -3 0 -8 5 -11 10 -3 6 -1 10 4 10 6 0
11 -4 11 -10z m118 -43 c3 -12 -4 -20 -17 -24 -12 -3 -21 -9 -21 -14 0 -5 -11
-9 -25 -9 -22 0 -25 -4 -25 -39 0 -22 5 -42 13 -44 6 -3 0 -6 -15 -6 -16 -1
-28 3 -28 8 0 5 -9 11 -20 14 -24 6 -27 42 -5 51 8 3 15 12 15 20 0 7 12 22
28 32 53 37 94 41 100 11z m-4421 -49 c-3 -8 -6 -5 -6 6 -1 11 2 17 5 13 3 -3
4 -12 1 -19z m-7 -44 c0 -8 -7 -14 -15 -14 -8 0 -15 9 -15 20 0 13 5 18 15 14
8 -4 15 -12 15 -20z m27 -6 c-3 -7 -5 -2 -5 12 0 14 2 19 5 13 2 -7 2 -19 0
-25z m835 -70 c-6 -6 -15 -9 -18 -5 -4 3 -4 14 0 23 5 13 9 15 18 6 9 -9 9
-15 0 -24z m3519 7 c-1 -15 -24 -12 -29 3 -3 9 2 13 12 10 10 -1 17 -7 17 -13z
m-34 -91 c2 -38 5 -80 8 -94 4 -19 -2 -33 -24 -57 -18 -18 -26 -33 -19 -35 19
-7 -1 -28 -26 -28 -12 0 -25 2 -28 5 -6 6 23 67 42 90 9 11 8 22 -5 49 -13 27
-14 39 -5 56 6 12 9 29 6 37 -7 18 22 55 38 50 6 -2 12 -35 13 -73z m-4319
-50 c1 -72 -1 -104 -7 -94 -9 12 -11 12 -16 -2 -7 -16 -13 -44 -14 -63 -1 -5
-8 -2 -17 7 -19 19 -10 78 12 78 15 0 19 44 8 75 -5 13 -8 14 -15 3 -6 -9 -9
-6 -9 10 0 13 4 20 10 17 6 -4 10 6 10 24 0 39 10 63 24 58 7 -2 12 -43 14
-113z m1432 -29 c0 -36 -14 -76 -22 -65 -2 3 -2 34 0 69 4 70 22 67 22 -4z
m2600 -5 c0 -5 -5 -10 -11 -10 -5 0 -7 5 -4 10 3 6 8 10 11 10 2 0 4 -4 4 -10z
m-13 -72 c-3 -8 -6 -5 -6 6 -1 11 2 17 5 13 3 -3 4 -12 1 -19z m-2958 -110 c0
-27 -2 -29 -8 -13 -5 11 -6 26 -4 33 8 21 13 13 12 -20z m3287 7 c20 -31 11
-45 -30 -45 -31 0 -32 1 -28 35 5 43 33 48 58 10z m-4342 6 c7 -11 -3 -41 -14
-41 -10 0 -20 37 -12 44 8 9 20 7 26 -3z m1446 5 c0 -3 -4 -8 -10 -11 -5 -3
-10 -1 -10 4 0 6 5 11 10 11 6 0 10 -2 10 -4z m-1487 -108 c3 -18 15 -85 26
-148 36 -198 23 -258 -29 -134 -20 49 -25 79 -28 177 -2 65 -1 125 2 133 9 23
23 8 29 -28z m4330 12 c18 -16 49 -44 70 -62 35 -30 39 -38 39 -81 0 -65 -22
-90 -64 -75 l-31 11 27 14 c24 13 31 28 26 63 -3 25 -42 49 -85 52 -36 3 -40
6 -43 32 -4 36 5 76 18 76 6 0 25 -13 43 -30z m-2888 -73 c15 -68 16 -84 4
-119 -17 -53 -24 -35 -37 97 -14 146 2 157 33 22z m-1335 51 c0 -5 -4 -8 -10
-8 -5 0 -10 10 -10 23 0 18 2 19 10 7 5 -8 10 -18 10 -22z m935 -55 c-5 -30
-4 -35 9 -30 13 5 16 -2 16 -42 0 -34 -5 -51 -15 -54 -8 -4 -17 -2 -20 3 -10
16 -3 170 7 164 6 -4 7 -22 3 -41z m-922 18 c-2 -6 1 -11 6 -11 5 0 12 -17 15
-37 4 -21 9 -51 12 -68 5 -22 3 -27 -5 -19 -7 6 -14 24 -17 40 -3 16 -9 31
-13 34 -5 3 -11 22 -15 44 -6 29 -4 37 6 33 7 -2 12 -10 11 -16z m3951 -66 c4
-21 2 -44 -5 -57 -13 -22 -13 -22 -21 12 -8 38 -3 80 11 80 5 0 12 -16 15 -35z
m246 -60 c0 -8 -2 -15 -4 -15 -2 0 -6 7 -10 15 -3 8 -1 15 4 15 6 0 10 -7 10
-15z m-2843 -85 c7 -19 8 -32 2 -36 -6 -4 -6 -11 1 -19 7 -8 7 -16 2 -19 -9
-5 -32 64 -32 93 0 22 16 10 27 -19z m-380 -47 c-3 -10 -5 -4 -5 12 0 17 2 24
5 18 2 -7 2 -21 0 -30z m-1077 -130 c7 -32 16 -72 22 -89 5 -18 8 -54 7 -80
-1 -27 -2 -114 -1 -194 2 -172 -1 -213 -17 -218 -6 -2 -11 -10 -11 -18 0 -8
-9 -14 -20 -14 -17 0 -20 7 -20 45 0 25 5 54 12 64 9 15 9 28 0 59 -15 48 -16
266 -2 292 12 23 22 112 11 106 -9 -6 -34 101 -26 115 13 19 32 -10 45 -68z
m1410 47 c6 -11 7 -20 2 -20 -6 0 -12 9 -15 20 -3 11 -3 20 -1 20 2 0 8 -9 14
-20z m3000 -15 c0 -8 -6 -15 -14 -15 -17 0 -28 14 -19 24 12 12 33 6 33 -9z
m-1 -54 c8 -5 14 -29 15 -62 1 -53 0 -54 -29 -57 -34 -4 -47 -19 -36 -41 5 -9
9 -56 9 -106 1 -49 6 -114 11 -144 8 -38 8 -58 0 -67 -6 -7 -13 -27 -16 -45
-6 -42 -33 -78 -57 -79 -17 0 -18 5 -12 57 4 32 12 60 18 64 9 6 6 21 -10 56
-17 37 -21 62 -18 108 1 33 7 68 11 78 4 10 3 35 -3 55 -6 20 -8 39 -3 42 17
12 20 42 5 65 -22 33 -11 45 42 45 37 0 44 3 44 20 0 22 7 25 29 11z m-1259
-141 c56 -11 111 -20 123 -20 12 0 49 -9 82 -19 33 -10 83 -22 110 -25 45 -6
330 -84 396 -108 21 -7 30 -20 39 -56 6 -26 16 -58 22 -72 13 -34 -12 -50 -79
-50 -44 0 -58 -5 -86 -30 -19 -16 -44 -30 -55 -30 -11 0 -69 16 -127 35 -125
42 -232 68 -369 90 -116 18 -164 38 -178 74 -13 35 -16 201 -3 202 6 0 4 3 -2
6 -20 7 -15 23 6 23 11 0 65 -9 121 -20z m-3020 -35 c1 13 5 9 10 -12 9 -41 6
-240 -4 -270 -5 -14 -4 -23 2 -23 5 0 13 10 17 23 6 20 8 20 12 3 3 -10 2 -38
-2 -62 -5 -38 -10 -44 -30 -44 -24 0 -24 1 -22 83 1 45 0 102 -1 127 -7 82 -1
207 8 180 7 -21 8 -22 10 -5z m934 -125 c7 -109 3 -140 -19 -140 -22 0 -29
188 -9 265 l7 30 7 -25 c4 -14 10 -72 14 -130z m3005 19 c1 -38 5 -79 9 -91
18 -49 14 -103 -7 -122 -18 -16 -21 -17 -21 -3 0 8 5 17 12 19 8 3 6 17 -10
46 -16 30 -21 58 -21 107 1 36 5 65 10 65 5 0 7 11 3 24 -3 14 -3 30 1 36 13
22 22 -9 24 -81z m-2627 49 c-9 -9 -12 -7 -12 12 0 19 3 21 12 12 9 -9 9 -15
0 -24z m-605 -20 c1 -7 6 -35 13 -63 6 -27 14 -66 17 -85 3 -19 10 -41 16 -48
12 -15 13 -14 -38 -31 -58 -20 -230 -106 -284 -142 -25 -18 -81 -51 -124 -75
-65 -36 -81 -41 -92 -31 -7 7 -27 12 -44 11 -17 -1 -31 2 -31 7 0 5 -6 9 -14
9 -8 0 -18 5 -21 10 -8 13 14 42 26 34 5 -3 9 4 9 15 0 12 5 21 11 21 5 0 7 5
3 11 -5 8 -9 8 -14 -1 -4 -6 -23 -15 -43 -20 l-36 -8 14 29 c16 30 51 59 73
59 8 0 33 16 56 35 24 19 50 35 59 35 8 0 39 19 69 43 162 130 373 234 375
185z m617 -90 c3 -13 6 -45 6 -72 0 -40 -2 -46 -14 -37 -16 14 -26 67 -19 104
6 33 19 35 27 5z m-377 -140 c-3 -7 -5 -2 -5 12 0 14 2 19 5 13 2 -7 2 -19 0
-25z m-40 -40 c-3 -8 -6 -5 -6 6 -1 11 2 17 5 13 3 -3 4 -12 1 -19z m2173 -27
c47 -7 119 -19 160 -28 41 -9 122 -19 180 -23 69 -4 98 -9 85 -14 -11 -5 -38
-17 -61 -27 -22 -11 -45 -19 -51 -19 -28 0 -268 -75 -361 -112 -124 -50 -127
-49 -127 60 -1 43 -7 89 -14 104 -8 16 -11 38 -7 53 8 31 9 31 196 6z m-3176
-227 c-3 -97 -9 -184 -14 -195 -7 -12 -21 -19 -38 -19 -27 0 -27 1 -25 63 1
34 2 102 3 150 0 49 5 98 11 110 8 17 57 67 65 67 1 0 0 -79 -2 -176z m852
149 c16 -21 18 -49 4 -58 -17 -11 -11 -56 10 -73 12 -11 22 -35 26 -65 l7 -47
-34 6 c-19 4 -57 17 -86 30 -29 12 -90 34 -136 48 -122 37 -124 45 -30 97 43
24 96 53 118 66 46 26 99 24 121 -4z m204 -24 c0 -10 -9 -24 -20 -31 -11 -7
-20 -18 -20 -25 0 -7 -4 -13 -10 -13 -17 0 -11 41 11 71 22 31 39 30 39 -2z
m-917 14 c4 -3 3 -11 -3 -17 -5 -7 -13 -47 -19 -90 -8 -70 -22 -108 -35 -95
-9 9 -19 138 -12 164 8 29 53 55 69 38z m3914 -36 c-13 -32 -41 -47 -58 -30
-10 10 49 76 62 68 5 -4 3 -19 -4 -38z m301 28 c2 -2 -6 -24 -18 -50 -21 -46
-21 -47 -2 -65 18 -17 19 -30 13 -187 -1 -7 -8 -13 -17 -13 -13 0 -16 -7 -11
-39 2 -21 1 -44 -3 -52 -5 -7 -4 -21 1 -31 18 -33 -5 -56 -63 -62 -359 -38
-438 -47 -467 -52 -54 -10 -34 17 32 43 48 19 83 24 219 29 148 6 166 8 200
30 l36 23 -1 73 c-1 40 -5 78 -8 83 -4 6 -7 23 -7 39 0 15 -6 32 -13 37 -10 6
-11 11 -3 17 20 13 36 53 26 65 -33 42 14 136 61 121 12 -3 23 -8 25 -9z
m-2931 -13 c-10 -10 -17 -27 -18 -38 0 -11 -3 -14 -6 -6 -9 22 7 62 24 62 15
0 15 -1 0 -18z m2271 -45 c-16 -6 -28 -17 -28 -24 0 -7 -6 -13 -13 -13 -8 0
-22 -9 -33 -21 -22 -24 -106 -69 -129 -69 -9 0 -55 -13 -103 -29 -130 -44
-282 -89 -327 -96 -22 -4 -76 -18 -120 -31 -44 -13 -136 -31 -205 -39 -69 -9
-141 -20 -160 -25 -19 -5 -98 -17 -175 -26 -77 -8 -143 -18 -146 -20 -18 -11
-419 -34 -592 -34 -200 0 -284 -10 -294 -36 -11 -29 -21 -13 -13 21 4 19 6 35
3 35 -3 0 0 6 6 14 10 12 77 15 374 18 284 4 379 8 442 21 44 9 123 21 175 28
209 24 297 38 345 52 28 8 70 18 95 21 48 7 255 55 485 112 82 21 180 53 236
79 52 24 108 47 122 50 15 4 30 11 33 16 3 5 15 9 27 8 20 -1 19 -2 -5 -12z
m228 -44 c-4 -16 -22 -41 -41 -58 -19 -16 -64 -56 -100 -88 -38 -33 -73 -57
-83 -55 -20 4 -31 68 -11 68 8 0 8 4 -1 15 -10 12 -10 15 2 15 8 0 19 -5 26
-12 13 -13 83 39 140 104 41 47 78 52 68 11z m-2897 -35 c7 -25 9 -164 2 -230
-1 -4 -15 -20 -33 -37 l-31 -29 -29 19 c-15 10 -41 28 -57 38 -15 11 -64 27
-107 36 -44 9 -88 22 -99 29 -11 7 -47 23 -80 35 -77 29 -171 81 -215 120 -31
28 -33 31 -13 31 20 0 34 -6 125 -51 20 -11 41 -19 47 -19 6 0 38 -13 73 -30
35 -16 89 -36 121 -44 52 -14 114 -42 127 -57 3 -4 35 -8 73 -11 l67 -4 0 118
c0 118 9 147 29 86z m398 -35 c-5 -48 -12 -71 -27 -85 -20 -18 -20 -18 -20 3
0 55 24 149 38 149 12 0 14 -12 9 -67z m-1183 -3 c12 -12 34 -32 50 -45 28
-24 28 -25 7 -25 -22 0 -91 61 -91 80 0 15 11 12 34 -10z m3915 -41 c-29 -23
-39 -24 -39 -4 0 17 39 36 54 27 5 -2 -2 -13 -15 -23z m-49 -29 c0 -5 -6 -10
-14 -10 -8 0 -18 5 -21 10 -3 6 3 10 14 10 12 0 21 -4 21 -10z m-505 -21 c-4
-5 -15 -9 -26 -9 -10 0 -19 -4 -19 -10 0 -5 -5 -10 -11 -10 -18 0 -4 24 21 37
25 12 44 8 35 -8z m-3195 -29 c0 -21 -33 -29 -45 -10 -9 15 4 30 26 30 12 0
19 -7 19 -20z m3270 -20 c0 -21 -41 -50 -80 -56 -23 -4 -40 -12 -40 -20 0 -13
-119 -74 -145 -74 -9 0 -26 -6 -38 -14 -24 -16 -91 -40 -152 -54 -22 -6 -94
-24 -160 -40 -278 -71 -936 -156 -1400 -182 -104 -6 -214 -13 -242 -17 -47 -5
-53 -4 -53 13 0 11 6 29 13 41 11 22 19 23 177 28 252 7 537 23 615 35 39 6
124 14 191 20 158 12 360 42 624 94 201 39 328 76 435 126 22 10 62 28 90 40
27 11 59 29 70 40 11 10 34 20 50 23 17 2 33 5 38 6 4 0 7 -3 7 -9z m-300 -19
c0 -16 -29 -33 -52 -29 -29 4 -27 21 4 30 34 9 48 9 48 -1z m-2846 -21 c33
-12 33 -37 1 -52 -28 -13 -55 3 -55 32 0 31 13 36 54 20z m-388 -34 c-6 -32
-5 -35 29 -46 62 -20 37 -58 -27 -39 -18 5 -50 9 -70 9 -21 0 -60 10 -87 22
-44 19 -48 23 -33 34 11 8 19 9 23 2 7 -11 99 29 99 43 0 5 16 9 36 9 36 0 36
0 30 -34z m3054 -9 c0 -12 -78 -37 -116 -37 -26 0 -14 18 24 33 47 20 92 22
92 4z m-2432 -77 c63 -30 82 -44 82 -60 0 -29 -38 -26 -85 6 -21 14 -56 32
-79 41 -51 20 -48 17 -40 37 9 24 31 20 122 -24z m249 -32 c-9 -13 -28 -36
-41 -53 l-26 -30 -36 20 c-22 12 -31 21 -23 24 21 6 82 53 98 74 12 17 15 17
29 4 14 -14 13 -18 -1 -39z m-752 2 c-5 -8 13 -25 28 -25 4 0 7 -3 7 -7 0 -9
-9 -10 -32 -2 -11 3 -18 15 -18 30 0 15 4 23 10 19 6 -4 8 -10 5 -15z m1125
-122 c0 -7 -5 -20 -10 -28 -8 -12 -10 -9 -10 13 0 15 5 27 10 27 6 0 10 -6 10
-12z m-767 -63 c-1 -5 -26 -12 -54 -15 -44 -5 -57 -11 -83 -42 -17 -19 -43
-38 -58 -42 -19 -4 -26 -11 -22 -21 4 -9 0 -15 -9 -15 -23 0 -29 28 -6 35 10
4 31 23 46 42 42 55 79 74 138 71 28 -2 49 -7 48 -13z m2873 0 c3 -11 -129
-78 -196 -100 -25 -7 -69 -23 -98 -34 -30 -11 -79 -25 -110 -31 -32 -7 -84
-20 -118 -30 -88 -26 -241 -52 -529 -89 -317 -41 -1111 -60 -1353 -32 -67 8
-125 18 -128 22 -2 4 -2 20 2 34 7 29 31 33 49 8 26 -36 274 -38 1025 -8 170
7 450 34 575 55 61 11 137 22 170 25 70 8 330 66 425 96 57 18 93 33 210 87
29 13 72 11 76 -3z m67 -43 c18 -19 42 -80 35 -87 -13 -14 -47 13 -69 56 l-27
49 23 0 c12 0 29 -8 38 -18z m-2787 -7 c19 -14 19 -14 -2 -15 -12 0 -27 7 -34
15 -17 20 9 21 36 0z m2874 -105 c0 -5 -7 -10 -16 -10 -8 0 -12 5 -9 10 3 6
10 10 16 10 5 0 9 -4 9 -10z m-3293 -32 c-3 -8 -6 -5 -6 6 -1 11 2 17 5 13 3
-3 4 -12 1 -19z m3417 -71 c22 -50 25 -53 61 -53 24 0 42 -6 50 -17 7 -9 15
-17 19 -17 4 0 16 -8 26 -18 25 -23 15 -68 -23 -95 -22 -17 -29 -18 -42 -7
-21 17 -19 31 10 74 13 20 23 36 22 37 -1 0 -27 6 -57 13 -30 7 -63 16 -72 21
-13 5 -18 3 -18 -9 0 -28 -34 -18 -49 15 -10 22 -11 37 -3 52 6 12 13 30 16
40 10 33 36 18 60 -36z m-3346 -2 c3 -38 3 -38 -20 -23 -27 18 -35 47 -16 59
22 15 33 4 36 -36z m-112 -30 c27 -65 11 -105 -36 -90 -35 11 -40 87 -8 109
29 21 27 22 44 -19z m223 -57 c5 -13 7 -24 6 -26 -5 -5 -45 31 -45 40 0 18 31
6 39 -14z m-333 -183 c3 -7 16 -16 29 -19 13 -3 27 -15 30 -27 8 -25 60 -104
89 -137 12 -13 36 -30 54 -37 17 -8 32 -19 32 -24 0 -18 -56 -12 -83 9 -14 11
-30 20 -35 20 -17 0 -68 66 -88 113 -10 26 -22 47 -26 47 -4 0 -23 15 -44 34
-34 31 -35 34 -18 44 21 11 52 0 60 -23z m3612 17 c7 -5 10 -16 6 -26 -6 -15
-7 -15 -20 1 -13 17 -13 17 -14 -1 0 -12 -5 -16 -15 -12 -8 3 -15 0 -15 -6 0
-6 -2 -9 -5 -6 -3 2 1 16 8 31 12 27 31 33 55 19z m-3051 -8 c-3 -3 -12 -4
-19 -1 -8 3 -5 6 6 6 11 1 17 -2 13 -5z m2701 -6 c-5 -16 -48 -24 -48 -10 0
11 17 20 38 21 8 1 12 -5 10 -11z m593 -16 c10 -12 19 -23 19 -26 0 -8 -43 3
-49 12 -3 5 -14 11 -23 15 -27 10 -21 26 8 22 14 -1 34 -12 45 -23z m-3088
-27 c19 -8 48 -17 64 -19 16 -3 58 -15 92 -26 35 -11 78 -20 95 -20 17 -1 49
-8 71 -16 22 -9 58 -19 80 -24 l40 -7 -37 -2 c-40 -1 -93 9 -198 39 -93 26
-188 50 -240 61 -24 5 -49 14 -54 19 -16 16 46 12 87 -5z m2377 -15 c12 -8 9
-10 -13 -10 -16 0 -26 4 -22 10 8 12 16 12 35 0z m364 -5 c-4 -8 -17 -15 -30
-15 -30 0 -31 8 -1 20 32 13 37 12 31 -5z m286 9 c0 -3 -33 -49 -72 -101 -93
-122 -94 -123 -103 -123 -14 0 -118 -52 -133 -66 -7 -8 -19 -14 -27 -14 -7 0
-30 -9 -52 -20 -62 -33 -172 -67 -198 -62 -34 6 -22 19 25 27 22 4 40 12 40
18 0 7 37 25 83 41 166 58 215 88 292 177 102 119 112 129 130 129 8 0 15 -3
15 -6z m-3867 -36 c-4 -18 -8 -54 -8 -80 0 -39 -3 -48 -17 -48 -10 0 -20 10
-24 24 -7 28 12 96 27 96 5 0 9 9 9 20 0 11 5 20 11 20 7 0 8 -11 2 -32z
m3970 -75 c4 -58 5 -108 3 -111 -3 -2 -19 4 -36 15 -29 16 -31 21 -26 55 8 51
39 148 47 148 3 0 9 -48 12 -107z m-843 78 c0 -11 -27 -21 -77 -27 -44 -6 -40
1 13 20 47 17 64 19 64 7z m-199 -56 c-33 -15 -90 -21 -78 -8 7 6 68 20 97 21
8 1 0 -5 -19 -13z m480 2 c-18 -22 -172 -95 -257 -121 -118 -37 -425 -78 -758
-102 -256 -19 -777 -15 -941 6 -193 25 -457 78 -449 91 2 4 -1 9 -7 11 -30 10
155 -6 209 -18 35 -8 87 -17 115 -20 29 -3 84 -9 122 -14 237 -31 708 -37 985
-11 58 5 161 14 230 20 113 10 184 21 350 52 59 12 298 87 315 99 13 10 43 17
74 19 18 1 21 -2 12 -12z m-2780 -18 c16 -11 46 -23 66 -26 21 -3 43 -9 48
-13 9 -7 57 -16 177 -35 21 -3 40 -10 43 -16 9 -13 -109 -1 -155 16 -19 8 -55
16 -80 20 -25 3 -57 11 -70 18 -14 7 -44 19 -68 27 -29 9 -38 16 -30 22 21 13
38 9 69 -13z m2134 -24 c-40 -13 -154 -20 -143 -9 4 3 30 8 60 11 29 3 54 6
55 6 1 1 16 3 35 3 l33 2 -40 -13z m-1257 -12 c-15 -2 -42 -2 -60 0 -18 2 -6
4 27 4 33 0 48 -2 33 -4z m961 -39 c2 -2 -38 -4 -90 -4 -66 0 -90 3 -79 10 13
9 158 4 169 -6z m-316 -1 c-24 -2 -62 -2 -85 0 -24 2 -5 4 42 4 47 0 66 -2 43
-4z m105 0 c-10 -2 -26 -2 -35 0 -10 3 -2 5 17 5 19 0 27 -2 18 -5z m-2208 -7
c0 -3 -4 -8 -10 -11 -5 -3 -10 -1 -10 4 0 6 5 11 10 11 6 0 10 -2 10 -4z m380
-64 c25 -20 50 -42 55 -49 6 -6 42 -24 80 -38 122 -46 145 -58 145 -72 0 -21
-42 -15 -94 12 -26 14 -52 25 -59 25 -14 0 -119 48 -127 58 -3 4 -21 15 -40
25 -40 21 -74 62 -64 78 10 17 55 0 104 -39z m-430 -32 c-13 -25 -40 -26 -40
-2 0 10 10 30 23 46 l22 28 3 -26 c2 -14 -2 -34 -8 -46z m143 26 c5 -15 6 -30
3 -33 -9 -9 -35 29 -36 50 0 27 22 15 33 -17z m3830 -7 c-4 -13 -9 -17 -15
-11 -11 11 -3 32 12 32 4 0 6 -9 3 -21z m-3953 -120 c0 -6 -4 -7 -10 -4 -5 3
-10 11 -10 16 0 6 5 7 10 4 6 -3 10 -11 10 -16z m3206 -18 c-3 -5 -28 -20 -55
-34 -72 -38 -216 -71 -356 -82 -59 -5 -59 -5 -28 10 17 8 61 19 97 25 58 9
174 44 231 70 38 17 119 25 111 11z m449 -11 c8 -13 -24 -60 -41 -60 -19 0
-18 29 3 52 18 20 29 23 38 8z m235 -35 c0 -8 -4 -17 -10 -20 -6 -4 -10 5 -10
20 0 15 4 24 10 20 6 -3 10 -12 10 -20z m-3816 -1 c9 -3 16 -12 16 -19 0 -7 8
-15 18 -17 25 -7 76 -98 62 -112 -11 -11 -100 75 -100 98 0 7 -7 19 -15 26 -8
7 -12 16 -9 21 6 11 8 11 28 3z m2646 -83 c-20 -12 -209 -20 -216 -10 -4 7 50
12 181 17 32 1 44 -2 35 -7z m1074 -15 c-3 -9 -10 -16 -15 -16 -14 0 -11 28 4
33 16 6 19 3 11 -17z m-374 -6 c-26 -21 -42 -24 -54 -13 -7 7 40 31 64 32 10
0 6 -6 -10 -19z m-933 4 c-3 -3 -12 -4 -19 -1 -8 3 -5 6 6 6 11 1 17 -2 13 -5z
m-819 -21 c-16 -2 -40 -2 -55 0 -16 2 -3 4 27 4 30 0 43 -2 28 -4z m625 -4
c-14 -14 -478 -14 -548 -1 -24 5 78 9 260 11 236 1 297 -1 288 -10z m-1983
-60 c41 -43 31 -62 -21 -41 -29 11 -39 21 -39 37 0 44 22 46 60 4z m3360 -4
c-13 -14 -32 -25 -42 -25 -10 0 -18 -5 -18 -11 0 -5 -15 -17 -32 -25 -18 -9
-49 -24 -68 -34 -19 -10 -57 -20 -85 -24 -27 -3 -51 -10 -53 -16 -2 -5 -12
-10 -22 -10 -10 0 -21 -8 -25 -19 -4 -12 -19 -21 -44 -25 -22 -3 -52 -12 -68
-20 -15 -8 -48 -20 -73 -26 -25 -7 -64 -19 -87 -27 -24 -8 -80 -16 -125 -18
l-83 -4 90 24 c207 54 252 68 300 90 28 13 80 33 117 45 36 12 114 46 173 76
59 31 113 53 121 50 8 -3 11 0 8 9 -3 7 2 15 13 17 28 6 29 0 3 -27z m-3285
-55 c19 -8 19 -9 -2 -9 -12 -1 -25 4 -28 9 -7 12 2 12 30 0z m105 -60 c0 -5
-4 -10 -9 -10 -6 0 -13 5 -16 10 -3 6 1 10 9 10 9 0 16 -4 16 -10z m78 -30
c15 -11 43 -22 62 -24 19 -3 58 -11 85 -19 28 -8 84 -23 125 -35 108 -30 207
-52 273 -63 32 -5 88 -16 123 -24 36 -8 98 -15 137 -15 40 0 98 -4 129 -9 32
-6 140 -15 242 -22 201 -13 526 -2 768 26 68 8 147 15 175 17 29 2 53 6 53 11
0 4 24 7 53 6 51 -1 51 -1 17 -10 -19 -5 -57 -16 -85 -23 -27 -8 -101 -17
-162 -20 -62 -4 -125 -11 -140 -17 -41 -16 -595 -23 -808 -10 -350 22 -762 90
-815 136 -8 7 -34 15 -58 18 -24 3 -52 13 -62 22 -11 10 -32 17 -47 17 -15 0
-32 4 -38 8 -5 4 -30 14 -54 21 -40 12 -41 19 -3 28 2 1 15 -8 30 -19z"/>
<path d="M12075 14479 c-8 -25 -7 -27 35 -35 29 -6 32 -5 27 10 -4 10 -7 24
-7 32 0 23 -48 17 -55 -7z"/>
<path d="M11725 14424 c-220 -63 -259 -73 -525 -123 -262 -49 -444 -70 -770
-87 -312 -16 -927 44 -1295 126 -137 30 -300 54 -320 46 -14 -5 -7 -12 31 -32
74 -39 161 -72 234 -88 105 -22 300 -66 366 -82 70 -16 147 -27 369 -49 252
-25 883 -23 1136 4 437 47 647 84 736 131 21 10 81 34 133 52 l95 34 3 52 3
52 -38 -1 c-21 0 -92 -16 -158 -35z"/>
<path d="M8810 13225 c7 -9 15 -13 17 -11 7 7 -7 26 -19 26 -6 0 -6 -6 2 -15z"/>
<path d="M10013 11073 c9 -2 25 -2 35 0 9 3 1 5 -18 5 -19 0 -27 -2 -17 -5z"/>
<path d="M10505 10879 c-4 -6 -5 -12 -2 -15 2 -3 7 2 10 11 7 17 1 20 -8 4z"/>
<path d="M8900 9420 c0 -5 5 -10 10 -10 6 0 10 5 10 10 0 6 -4 10 -10 10 -5 0
-10 -4 -10 -10z"/>
<path d="M8994 9419 c-2 -4 24 -12 59 -18 34 -6 63 -15 65 -21 2 -5 10 -10 17
-10 15 0 31 38 20 48 -9 9 -155 10 -161 1z"/>
<path d="M12058 9439 c-22 -14 9 -35 54 -38 23 -1 48 -7 55 -13 10 -8 20 -7
38 2 26 14 32 34 14 46 -16 9 -146 12 -161 3z"/>
<path d="M11800 9429 c0 -5 5 -7 10 -4 6 3 10 8 10 11 0 2 -4 4 -10 4 -5 0
-10 -5 -10 -11z"/>
<path d="M11950 9425 c0 -8 5 -15 11 -15 6 0 17 7 25 15 14 13 13 15 -10 15
-16 0 -26 -6 -26 -15z"/>
<path d="M8660 6716 c0 -8 5 -18 10 -21 6 -3 10 1 10 9 0 8 -4 18 -10 21 -5 3
-10 -1 -10 -9z"/>
</g>
</svg>
